<?xml version="1.0" standalone="no"?>
<!DOCTYPE svg PUBLIC "-//W3C//DTD SVG 20010904//EN"
 "http://www.w3.org/TR/2001/REC-SVG-20010904/DTD/svg10.dtd">
<svg version="1.0" xmlns="http://www.w3.org/2000/svg"
 width="512.000000pt" height="512.000000pt" viewBox="0 0 512.000000 512.000000"
 preserveAspectRatio="xMidYMid meet">

<g transform="translate(0.000000,512.000000) scale(0.100000,-0.100000)"
fill="#eeeeee" stroke="none">
<path d="M591 5106 c-51 -29 -50 -10 -51 -772 l0 -711 -242 -176 c-295 -215
-272 -197 -286 -224 -17 -32 -17 -3131 0 -3168 26 -57 -22 -55 1093 -55 1115
0 1067 -2 1093 55 7 14 12 35 12 46 0 28 -26 75 -47 85 -10 5 -415 11 -899 14
l-882 5 1083 905 c596 498 1088 905 1095 905 7 0 500 -407 1096 -905 l1083
-905 -886 -5 -885 -5 -29 -33 c-40 -45 -39 -84 5 -128 l34 -34 1031 0 c1121 0
1073 -2 1099 55 17 36 17 3132 1 3169 -7 14 -120 104 -270 212 l-259 188 0
709 c0 769 1 750 -55 775 -40 19 -3900 17 -3934 -2z m3788 -1228 l0 -1043
-654 -475 c-360 -261 -660 -476 -667 -478 -7 -1 -107 77 -223 174 -115 98
-225 183 -242 191 -28 11 -38 11 -65 -1 -18 -8 -127 -93 -243 -190 -115 -97
-216 -175 -222 -173 -7 1 -307 216 -667 477 l-655 475 0 1043 -1 1042 1820 0
1820 0 -1 -1042z m-3841 -794 l-3 -96 -125 91 c-69 50 -126 95 -128 100 -1 4
55 50 125 100 l128 92 3 -95 c1 -53 1 -139 0 -192z m4177 195 c69 -50 125 -95
125 -99 0 -7 -246 -190 -255 -190 -3 0 -5 86 -5 190 0 105 2 190 5 190 2 0 61
-41 130 -91z m-3655 -921 c459 -335 835 -613 835 -618 0 -9 -1681 -1420 -1691
-1420 -2 0 -4 599 -4 1331 0 1062 3 1329 13 1322 6 -4 388 -281 847 -615z
m3858 -1374 l-3 -665 -845 706 c-465 388 -845 710 -845 715 0 6 380 286 845
624 l845 615 3 -664 c1 -366 1 -965 0 -1331z"/>
<path d="M2410 4605 c-161 -35 -302 -115 -416 -238 -76 -81 -148 -206 -178
-306 -128 -437 147 -892 597 -985 116 -24 161 -21 198 12 73 65 21 172 -84
172 -114 0 -271 74 -372 175 -115 114 -170 250 -168 415 3 247 159 458 403
542 93 32 257 32 351 0 176 -60 306 -185 367 -352 56 -151 11 -382 -88 -451
-40 -27 -75 -31 -100 -11 -22 18 -22 20 -24 356 l-1 338 -33 29 c-19 17 -44
29 -60 29 -37 0 -90 -34 -98 -64 l-6 -24 -56 20 c-155 55 -344 -23 -432 -177
-65 -114 -78 -292 -31 -417 84 -219 307 -326 488 -235 28 15 55 32 58 38 5 7
22 -4 49 -29 68 -66 132 -86 224 -72 180 30 300 189 332 443 16 127 -6 250
-67 371 -44 89 -63 116 -138 195 -179 190 -462 279 -715 226z m190 -544 c24
-12 44 -36 64 -74 56 -110 34 -267 -50 -348 -31 -30 -42 -34 -87 -34 -66 0
-103 25 -143 97 -26 48 -29 62 -29 144 0 83 2 94 30 140 53 85 140 115 215 75z"/>
<path d="M1459 2761 c-50 -51 -37 -130 26 -157 51 -21 2099 -21 2150 0 63 27
76 106 26 157 l-29 29 -1072 0 -1072 0 -29 -29z"/>
<path d="M2494 166 c-46 -46 -46 -86 0 -132 36 -36 67 -42 111 -22 69 31 71
139 4 174 -45 23 -78 17 -115 -20z"/>
</g>
</svg>
